<svg xmlns="http://www.w3.org/2000/svg" width="512" height="512" viewBox="0 0 512 380" role="img" aria-labelledby="title desc">
  <title id="title">LUCKNOW location icon</title>
  <desc id="desc">Black and white vector line-art landmark icon labeled LUCKNOW.</desc>
  <rect width="512" height="512" fill="#fff"/>
  <g transform="translate(55.6522 24.0000) scale(1.391304)">
    <path d="M 35 44 L 34 49 L 30 53 L 30 58 L 27 60 L 27 62 L 29 64 L 29 73 L 25 76 L 25 78 L 29 81 L 29 88 L 30 89 L 29 90 L 30 93 L 29 96 L 29 122 L 27 126 L 23 126 L 23 128 L 28 133 L 28 136 L 23 140 L 22 137 L 19 139 L 15 137 L 12 140 L 9 137 L 8 137 L 6 140 L 3 136 L 1 137 L 1 141 L 4 142 L 4 147 L 6 147 L 6 143 L 7 142 L 8 143 L 8 147 L 10 147 L 10 143 L 11 142 L 12 143 L 12 147 L 14 147 L 14 143 L 15 142 L 16 143 L 16 147 L 16 143 L 17 142 L 19 147 L 20 147 L 20 143 L 21 142 L 22 143 L 22 147 L 25 147 L 25 144 L 26 143 L 28 144 L 28 149 L 27 150 L 1 150 L 2 153 L 27 153 L 28 154 L 28 170 L 27 171 L 26 170 L 26 160 L 24 157 L 22 157 L 20 160 L 20 170 L 19 171 L 18 170 L 18 159 L 16 157 L 14 157 L 12 160 L 12 170 L 11 171 L 10 170 L 10 160 L 8 157 L 6 157 L 4 159 L 4 170 L 1 171 L 2 173 L 27 173 L 28 174 L 27 175 L 1 175 L 2 178 L 27 178 L 28 179 L 28 184 L 27 185 L 27 207 L 26 208 L 22 208 L 21 207 L 21 190 L 20 188 L 16 185 L 12 185 L 8 188 L 7 191 L 7 207 L 1 209 L 27 209 L 28 210 L 27 212 L 2 212 L 3 215 L 26 215 L 27 216 L 27 224 L 25 225 L 25 228 L 26 229 L 26 236 L 25 239 L 26 241 L 23 243 L 22 246 L 21 245 L 21 227 L 19 224 L 14 220 L 15 217 L 14 217 L 14 220 L 7 226 L 7 245 L 6 246 L 2 246 L 2 248 L 20 248 L 21 249 L 20 250 L 0 250 L 0 252 L 287 252 L 286 250 L 236 250 L 235 249 L 236 248 L 285 248 L 284 246 L 280 246 L 279 245 L 280 244 L 279 227 L 276 223 L 272 221 L 268 223 L 265 227 L 265 245 L 264 246 L 255 246 L 254 245 L 254 230 L 252 225 L 246 221 L 242 223 L 238 229 L 238 245 L 235 246 L 234 243 L 232 242 L 232 237 L 231 236 L 231 231 L 233 229 L 233 225 L 231 224 L 231 215 L 232 214 L 233 215 L 236 214 L 257 214 L 258 215 L 261 214 L 285 214 L 285 213 L 232 213 L 231 212 L 232 210 L 285 210 L 285 209 L 279 207 L 279 191 L 278 189 L 273 185 L 269 186 L 265 191 L 265 207 L 264 208 L 255 208 L 253 205 L 253 198 L 254 197 L 253 195 L 254 193 L 253 190 L 247 185 L 243 186 L 239 190 L 238 193 L 238 207 L 237 208 L 232 208 L 231 207 L 231 179 L 232 178 L 233 179 L 238 179 L 239 178 L 240 179 L 244 179 L 245 178 L 280 179 L 281 178 L 285 178 L 286 176 L 234 176 L 233 175 L 234 174 L 285 174 L 286 173 L 284 172 L 284 162 L 282 159 L 280 159 L 278 162 L 278 171 L 277 172 L 275 171 L 275 161 L 274 159 L 271 159 L 270 161 L 270 171 L 269 172 L 267 171 L 267 162 L 265 159 L 263 159 L 261 162 L 261 171 L 260 172 L 257 172 L 256 171 L 256 161 L 254 159 L 251 161 L 251 171 L 249 172 L 248 171 L 248 161 L 245 159 L 242 163 L 242 170 L 243 171 L 241 173 L 240 172 L 240 161 L 238 159 L 236 159 L 234 162 L 234 171 L 232 172 L 231 171 L 231 156 L 232 155 L 286 155 L 286 153 L 232 153 L 231 152 L 231 145 L 232 144 L 233 145 L 233 150 L 235 149 L 234 146 L 236 144 L 238 146 L 238 149 L 240 150 L 242 149 L 241 146 L 242 144 L 244 146 L 244 150 L 245 150 L 245 146 L 246 145 L 248 146 L 248 150 L 249 150 L 249 146 L 250 145 L 252 150 L 253 150 L 253 146 L 254 145 L 256 150 L 257 149 L 257 144 L 258 143 L 261 145 L 260 146 L 261 150 L 263 144 L 264 145 L 264 150 L 265 150 L 267 144 L 268 145 L 268 149 L 270 150 L 270 145 L 273 144 L 274 145 L 274 149 L 276 150 L 276 145 L 278 144 L 279 145 L 279 150 L 280 150 L 280 146 L 281 145 L 282 146 L 282 150 L 284 149 L 284 145 L 286 144 L 286 140 L 284 139 L 282 142 L 280 142 L 277 140 L 275 143 L 273 140 L 271 140 L 269 143 L 266 142 L 265 140 L 262 142 L 259 139 L 258 139 L 256 142 L 253 140 L 249 142 L 248 140 L 245 142 L 243 140 L 241 140 L 239 143 L 237 141 L 235 141 L 234 143 L 233 142 L 233 138 L 230 136 L 230 134 L 233 130 L 235 129 L 235 126 L 231 126 L 229 121 L 229 82 L 233 79 L 233 76 L 230 74 L 230 64 L 232 62 L 232 60 L 229 58 L 229 54 L 228 52 L 224 49 L 224 44 L 223 42 L 222 42 L 220 45 L 221 49 L 216 53 L 216 58 L 213 60 L 213 62 L 215 64 L 215 74 L 212 76 L 212 79 L 216 82 L 216 102 L 215 103 L 212 100 L 214 99 L 214 95 L 213 94 L 212 96 L 210 97 L 207 91 L 212 89 L 212 87 L 210 84 L 208 84 L 207 86 L 204 88 L 201 85 L 202 79 L 200 79 L 197 81 L 196 79 L 193 79 L 192 78 L 192 75 L 191 74 L 192 70 L 190 67 L 190 65 L 192 63 L 188 56 L 187 57 L 187 60 L 185 62 L 186 67 L 184 70 L 182 71 L 180 66 L 176 68 L 174 63 L 170 63 L 169 62 L 169 59 L 166 61 L 162 58 L 163 56 L 161 54 L 160 54 L 158 57 L 155 54 L 155 50 L 154 49 L 150 51 L 147 46 L 144 48 L 141 45 L 141 33 L 144 30 L 144 28 L 139 24 L 139 21 L 140 20 L 139 16 L 135 12 L 131 10 L 130 8 L 131 7 L 129 5 L 129 1 L 127 0 L 126 2 L 125 10 L 121 12 L 117 16 L 116 18 L 116 25 L 111 29 L 115 34 L 115 45 L 110 50 L 108 48 L 106 48 L 104 50 L 105 51 L 102 55 L 99 56 L 96 55 L 95 58 L 93 60 L 89 59 L 88 60 L 89 61 L 88 63 L 85 62 L 82 66 L 78 65 L 76 70 L 74 69 L 72 65 L 74 62 L 72 59 L 71 55 L 69 56 L 69 59 L 67 61 L 68 64 L 67 66 L 67 70 L 66 71 L 67 75 L 64 77 L 61 71 L 59 71 L 57 73 L 57 75 L 53 77 L 53 79 L 56 83 L 56 85 L 52 88 L 47 84 L 45 86 L 45 89 L 49 89 L 51 91 L 48 93 L 48 95 L 45 97 L 45 99 L 43 102 L 42 101 L 42 81 L 45 79 L 46 77 L 42 73 L 42 64 L 44 62 L 44 60 L 41 57 L 41 53 L 37 49 L 37 45 Z M 24 249 L 25 248 L 232 248 L 233 249 L 232 250 L 25 250 Z M 193 245 L 194 244 L 230 244 L 231 245 L 230 246 L 194 246 Z M 26 245 L 27 244 L 190 244 L 191 245 L 190 246 L 27 246 Z M 219 239 L 220 238 L 228 238 L 230 241 L 229 242 L 220 242 Z M 208 239 L 209 238 L 216 238 L 217 241 L 216 242 L 209 242 Z M 194 240 L 196 238 L 204 238 L 205 239 L 204 242 L 195 242 Z M 181 239 L 182 238 L 191 238 L 192 241 L 191 242 L 182 242 Z M 66 239 L 67 238 L 76 238 L 77 241 L 76 242 L 67 242 Z M 52 239 L 53 238 L 62 238 L 63 241 L 62 242 L 53 242 Z M 40 239 L 41 238 L 48 238 L 49 241 L 48 242 L 41 242 Z M 28 239 L 29 238 L 37 238 L 38 241 L 37 242 L 29 242 Z M 143 238 L 144 237 L 150 237 L 151 238 L 151 241 L 150 242 L 144 242 L 143 241 Z M 136 238 L 137 237 L 141 237 L 142 238 L 142 241 L 141 242 L 137 242 L 136 241 Z M 106 237 L 106 241 L 105 242 L 94 242 L 93 241 L 93 238 L 94 237 L 104 237 L 105 236 Z M 50 231 L 51 232 L 50 235 L 49 234 Z M 220 231 L 221 230 L 227 230 L 228 231 L 228 235 L 227 236 L 221 236 L 220 235 Z M 208 231 L 209 230 L 210 231 L 216 231 L 217 232 L 217 235 L 216 236 L 209 236 L 208 235 Z M 195 231 L 196 230 L 204 230 L 205 231 L 204 232 L 205 235 L 204 236 L 196 236 L 195 235 Z M 182 231 L 183 230 L 191 230 L 192 231 L 192 235 L 191 236 L 183 237 L 182 236 Z M 66 231 L 67 230 L 76 230 L 77 231 L 76 232 L 77 235 L 75 237 L 67 237 L 66 236 Z M 53 231 L 54 230 L 62 230 L 63 231 L 63 236 L 62 237 L 61 236 L 54 236 L 53 235 Z M 40 232 L 42 230 L 47 230 L 48 231 L 48 234 L 50 235 L 49 236 L 41 236 L 40 235 Z M 29 231 L 30 230 L 36 230 L 37 231 L 37 235 L 36 236 L 30 236 L 29 235 Z M 219 227 L 220 226 L 229 226 L 230 227 L 229 228 L 220 228 Z M 208 227 L 209 226 L 215 226 L 217 228 L 216 229 L 209 229 Z M 195 227 L 196 226 L 204 226 L 205 228 L 204 229 L 196 229 Z M 181 228 L 183 226 L 191 226 L 192 227 L 191 229 L 182 229 Z M 66 227 L 67 226 L 76 226 L 77 228 L 76 229 L 67 229 Z M 53 227 L 54 226 L 62 226 L 63 228 L 62 229 L 54 229 Z M 41 227 L 42 226 L 47 226 L 49 228 L 48 229 L 42 229 Z M 28 227 L 29 226 L 37 226 L 38 227 L 37 228 L 29 228 Z M 39 220 L 43 218 L 46 219 L 47 218 L 48 219 L 48 224 L 47 225 L 41 225 Z M 209 219 L 214 217 L 218 220 L 218 222 L 216 225 L 210 225 L 209 224 Z M 211 220 L 211 221 L 213 221 L 213 220 Z M 117 210 L 122 211 L 127 217 L 127 241 L 126 242 L 111 242 L 110 241 L 110 216 Z M 39 212 L 41 210 L 47 210 L 48 211 L 47 214 L 48 215 L 44 217 L 40 215 Z M 218 212 L 215 216 L 210 216 L 209 215 L 209 211 L 210 210 L 214 210 L 215 209 Z M 210 208 L 211 207 L 212 208 L 211 209 Z M 151 207 L 152 206 L 153 208 L 152 209 Z M 132 207 L 133 206 L 134 208 L 133 209 Z M 107 207 L 108 206 L 109 207 L 108 208 Z M 91 207 L 92 206 L 93 208 L 92 209 Z M 172 205 L 174 204 L 175 207 L 174 208 Z M 152 205 L 153 204 L 154 206 L 153 207 Z M 108 205 L 109 204 L 110 205 L 109 206 Z M 153 204 L 154 203 L 155 204 L 154 205 Z M 109 204 L 110 203 L 111 204 L 110 205 Z M 90 204 L 91 203 L 92 205 L 91 206 Z M 171 203 L 172 202 L 173 204 L 172 205 Z M 154 203 L 155 202 L 156 203 L 155 204 Z M 209 202 L 210 201 L 216 201 L 218 204 L 215 207 L 213 207 L 209 205 Z M 169 202 L 170 201 L 172 202 L 171 203 Z M 155 202 L 156 201 L 157 202 L 156 203 Z M 127 202 L 129 201 L 133 206 L 132 207 Z M 113 201 L 114 202 L 111 204 L 110 203 Z M 89 202 L 90 201 L 91 203 L 90 204 Z M 39 205 L 41 201 L 47 201 L 48 202 L 48 205 L 45 207 L 44 209 L 42 206 Z M 168 201 L 169 200 L 170 201 L 169 202 Z M 88 201 L 89 200 L 90 201 L 89 202 Z M 166 200 L 167 199 L 169 200 L 168 201 Z M 159 199 L 160 200 L 157 202 L 156 201 Z M 87 200 L 88 199 L 89 200 L 88 201 Z M 165 199 L 166 198 L 167 199 L 166 200 Z M 159 199 L 160 198 L 162 199 L 161 200 Z M 86 199 L 87 198 L 88 199 L 87 200 Z M 81 198 L 82 199 L 78 203 L 77 201 Z M 164 198 L 165 197 L 166 198 L 165 199 Z M 161 198 L 162 197 L 163 198 L 162 199 Z M 121 198 L 122 197 L 128 201 L 126 202 L 122 200 Z M 121 198 L 115 202 L 113 201 L 119 197 Z M 85 198 L 86 197 L 87 198 L 86 199 Z M 81 198 L 82 197 L 83 198 L 82 199 Z M 82 197 L 83 196 L 85 197 L 84 198 Z M 47 192 L 49 196 L 47 198 L 45 198 L 44 200 L 43 198 L 41 198 L 39 196 L 42 192 Z M 209 192 L 210 191 L 215 191 L 218 196 L 215 198 L 210 198 L 209 197 Z M 209 185 L 210 184 L 214 184 L 217 186 L 218 188 L 216 190 L 210 190 L 209 189 Z M 40 186 L 42 184 L 47 184 L 48 185 L 48 189 L 44 191 L 40 188 Z M 174 182 L 175 183 L 175 203 L 174 204 L 171 199 L 163 194 L 156 198 L 152 202 L 150 206 L 150 211 L 151 209 L 152 210 L 151 213 L 151 234 L 150 235 L 145 235 L 144 234 L 144 185 L 145 184 L 152 184 L 153 183 L 169 183 L 170 182 Z M 162 186 L 160 188 L 160 191 L 161 192 L 164 192 L 165 191 L 165 187 Z M 79 182 L 87 182 L 88 183 L 97 183 L 98 184 L 141 184 L 142 185 L 142 234 L 138 236 L 136 235 L 136 208 L 135 205 L 131 200 L 122 195 L 120 195 L 112 199 L 106 206 L 106 234 L 104 236 L 101 235 L 94 235 L 93 234 L 93 214 L 94 213 L 94 205 L 90 198 L 86 194 L 80 197 L 79 199 L 77 198 L 77 186 Z M 120 187 L 118 189 L 118 191 L 120 193 L 122 193 L 123 192 L 123 188 Z M 86 186 L 83 188 L 83 191 L 84 192 L 86 192 L 88 189 Z M 179 181 L 180 182 L 180 223 L 181 224 L 179 226 L 179 237 L 178 238 L 179 241 L 176 242 L 175 241 L 175 211 L 174 208 L 175 207 L 176 209 L 176 183 Z M 36 181 L 37 180 L 38 181 L 37 182 Z M 180 178 L 175 180 L 166 180 L 165 181 L 152 181 L 151 182 L 145 182 L 144 181 L 145 179 L 158 179 L 159 178 L 171 178 L 172 177 L 179 177 Z M 77 178 L 78 177 L 83 177 L 84 178 L 95 178 L 96 179 L 141 179 L 142 181 L 141 182 L 97 182 L 96 181 L 81 180 Z M 209 177 L 212 175 L 214 175 L 218 180 L 216 182 L 210 182 L 209 181 Z M 39 178 L 42 175 L 47 175 L 48 176 L 48 181 L 47 182 L 42 182 Z M 231 174 L 232 173 L 234 174 L 233 175 Z M 209 173 L 209 169 L 210 168 L 215 168 L 218 171 L 216 174 L 210 174 Z M 39 169 L 41 167 L 47 167 L 48 168 L 48 172 L 44 174 L 41 172 Z M 120 161 L 122 163 L 122 171 L 118 173 L 117 172 L 117 163 Z M 88 161 L 89 162 L 89 166 L 88 167 L 87 166 L 87 162 Z M 209 161 L 210 160 L 215 160 L 218 164 L 215 166 L 210 166 L 209 165 Z M 166 160 L 168 162 L 168 170 L 165 172 L 164 171 L 164 162 Z M 114 159 L 115 160 L 115 165 L 114 166 L 113 165 L 113 160 Z M 39 162 L 41 159 L 47 159 L 49 164 L 44 166 L 42 163 Z M 126 157 L 127 158 L 127 161 L 126 162 L 125 161 L 125 158 Z M 114 158 L 115 157 L 116 158 L 115 159 Z M 167 157 L 168 156 L 169 157 L 168 158 Z M 158 157 L 159 156 L 160 157 L 159 158 Z M 145 160 L 150 156 L 155 160 L 156 163 L 156 174 L 157 174 L 157 159 L 158 158 L 159 159 L 159 174 L 161 173 L 168 173 L 168 158 L 169 157 L 171 161 L 171 176 L 170 177 L 159 177 L 158 178 L 145 178 L 144 177 L 144 163 Z M 124 157 L 125 156 L 126 157 L 125 158 Z M 115 157 L 116 156 L 117 157 L 116 158 Z M 36 157 L 37 156 L 38 157 L 37 158 Z M 123 156 L 124 155 L 125 156 L 124 157 Z M 116 156 L 117 155 L 118 156 L 117 157 Z M 78 159 L 81 155 L 82 156 L 81 158 L 81 173 L 87 173 L 88 175 L 89 175 L 89 165 L 90 164 L 90 160 L 95 155 L 97 155 L 99 159 L 99 163 L 100 163 L 101 160 L 104 157 L 107 157 L 110 160 L 112 165 L 112 174 L 112 167 L 113 166 L 114 167 L 114 174 L 126 174 L 126 165 L 128 164 L 128 161 L 132 157 L 134 157 L 138 160 L 139 164 L 141 166 L 142 177 L 141 178 L 96 178 L 95 177 L 79 176 L 78 175 Z M 176 154 L 178 156 L 178 158 L 180 161 L 180 174 L 178 176 L 175 176 L 173 173 L 174 157 Z M 165 155 L 167 154 L 168 156 L 167 157 Z M 159 156 L 160 154 L 162 155 L 160 157 Z M 121 155 L 122 154 L 124 155 L 123 156 Z M 117 155 L 118 154 L 120 155 L 119 156 Z M 81 155 L 82 154 L 83 155 L 82 156 Z M 161 154 L 162 153 L 165 153 L 166 154 L 165 155 L 162 155 Z M 120 154 L 121 153 L 122 154 L 121 155 Z M 82 154 L 83 153 L 84 154 L 83 155 Z M 209 153 L 210 152 L 211 153 L 214 152 L 216 153 L 218 156 L 215 158 L 210 158 L 209 157 Z M 83 153 L 86 152 L 88 155 L 87 156 Z M 40 152 L 42 150 L 47 150 L 48 151 L 48 156 L 47 157 L 44 157 L 40 154 Z M 252 145 L 253 144 L 254 145 L 253 146 Z M 222 143 L 226 143 L 227 144 L 227 224 L 226 225 L 225 224 L 222 224 L 221 225 L 220 224 L 222 221 L 220 218 L 221 216 L 220 215 L 222 213 L 220 210 L 220 208 L 222 205 L 220 202 L 220 199 L 222 197 L 222 193 L 220 192 L 221 191 L 220 188 L 222 186 L 222 183 L 221 182 L 222 174 L 220 172 L 220 170 L 222 168 L 222 166 L 220 164 L 220 162 L 222 160 L 222 157 L 220 156 L 221 154 L 220 152 L 222 149 L 220 147 Z M 209 148 L 209 145 L 212 143 L 215 143 L 218 146 L 215 149 L 210 149 Z M 32 143 L 35 143 L 37 147 L 36 149 L 37 151 L 36 153 L 37 156 L 36 157 L 36 163 L 38 164 L 36 165 L 36 169 L 37 170 L 36 173 L 37 175 L 36 176 L 36 179 L 37 180 L 35 181 L 35 183 L 37 184 L 36 185 L 36 190 L 38 191 L 37 193 L 35 193 L 35 196 L 37 198 L 36 200 L 38 202 L 35 204 L 38 208 L 35 212 L 36 216 L 38 217 L 35 221 L 37 223 L 36 225 L 31 225 L 30 224 L 31 222 L 31 218 L 30 217 L 30 213 L 31 212 L 31 144 Z M 40 143 L 41 142 L 47 142 L 48 143 L 48 147 L 47 148 L 41 147 L 40 146 Z M 24 142 L 25 141 L 26 143 L 25 144 Z M 219 140 L 220 139 L 228 139 L 229 140 L 228 141 L 220 141 Z M 28 140 L 29 139 L 30 140 L 29 141 Z M 30 139 L 31 138 L 37 138 L 38 140 L 37 141 L 32 141 Z M 41 138 L 42 137 L 47 137 L 48 140 L 44 142 L 41 140 Z M 209 137 L 213 135 L 216 135 L 217 136 L 216 137 L 217 140 L 216 141 L 210 141 L 209 140 Z M 81 136 L 82 135 L 83 136 L 87 136 L 92 138 L 110 139 L 111 140 L 146 140 L 147 139 L 158 139 L 159 138 L 168 137 L 173 135 L 175 135 L 176 137 L 168 140 L 162 140 L 161 141 L 156 141 L 155 142 L 144 142 L 143 143 L 113 143 L 112 142 L 92 141 L 91 140 L 84 139 L 82 138 Z M 51 134 L 52 135 L 52 224 L 51 225 L 50 224 L 50 135 Z M 221 132 L 222 131 L 226 131 L 227 132 L 227 136 L 226 137 L 221 137 L 220 136 L 221 135 Z M 31 132 L 32 131 L 36 131 L 37 132 L 36 133 L 37 136 L 36 137 L 32 137 L 31 136 Z M 27 128 L 28 127 L 38 127 L 39 128 L 38 129 L 28 129 Z M 215 125 L 217 131 L 216 132 L 209 132 L 208 131 L 209 128 L 211 126 L 214 126 Z M 42 125 L 44 126 L 48 126 L 49 127 L 48 129 L 49 131 L 47 135 L 46 134 L 41 134 L 40 132 L 43 130 L 43 129 L 41 128 Z M 206 124 L 207 125 L 207 140 L 206 141 L 205 140 L 205 125 Z M 52 123 L 53 124 L 53 129 L 52 130 L 51 129 L 51 124 Z M 89 120 L 90 119 L 93 119 L 98 121 L 114 122 L 115 123 L 136 123 L 137 122 L 140 123 L 141 122 L 158 121 L 163 119 L 166 119 L 167 120 L 164 122 L 157 123 L 156 124 L 137 125 L 136 126 L 108 125 L 107 124 L 101 124 L 100 123 L 92 122 Z M 205 118 L 206 119 L 206 123 L 205 124 L 204 123 L 204 119 Z M 53 118 L 54 119 L 54 122 L 53 123 L 52 122 L 52 119 Z M 207 120 L 211 117 L 214 117 L 217 121 L 214 123 L 209 124 Z M 43 116 L 44 117 L 47 117 L 50 119 L 48 124 L 42 121 L 41 118 Z M 207 116 L 208 115 L 209 116 L 208 117 Z M 204 115 L 205 116 L 204 119 L 203 118 Z M 54 114 L 55 115 L 55 118 L 54 119 L 53 118 L 53 115 Z M 67 113 L 68 115 L 66 118 L 65 124 L 64 125 L 63 124 L 63 120 L 65 115 Z M 203 112 L 204 113 L 203 116 L 202 115 Z M 67 112 L 68 111 L 69 113 L 68 114 Z M 55 111 L 56 112 L 55 115 L 54 114 Z M 202 109 L 203 110 L 202 113 L 201 112 Z M 187 110 L 188 109 L 189 110 L 188 111 Z M 68 110 L 69 109 L 70 111 L 69 112 Z M 55 110 L 56 109 L 57 111 L 56 112 Z M 212 108 L 215 113 L 214 114 L 208 114 L 207 115 L 206 112 Z M 69 109 L 70 108 L 71 109 L 70 110 Z M 42 111 L 43 110 L 47 111 L 44 109 L 47 108 L 50 109 L 52 111 L 50 112 L 50 113 L 52 114 L 50 116 L 46 113 L 43 113 Z M 200 108 L 201 107 L 202 109 L 201 110 Z M 186 108 L 187 107 L 188 108 L 187 109 Z M 70 108 L 71 107 L 72 108 L 71 109 Z M 185 107 L 186 106 L 187 107 L 186 108 Z M 163 107 L 165 106 L 168 110 L 167 111 Z M 203 106 L 204 105 L 205 106 L 204 107 Z M 71 106 L 72 105 L 73 106 L 72 107 Z M 58 105 L 59 107 L 57 110 L 56 107 Z M 72 105 L 73 104 L 74 105 L 73 106 Z M 183 104 L 184 103 L 185 104 L 184 105 Z M 73 104 L 74 103 L 75 104 L 74 105 Z M 209 102 L 213 106 L 205 110 L 204 109 L 209 105 L 208 104 Z M 198 102 L 201 106 L 200 108 L 197 104 Z M 182 103 L 183 102 L 184 103 L 183 104 Z M 74 103 L 75 102 L 76 103 L 75 104 Z M 181 102 L 182 101 L 183 102 L 182 103 Z M 45 103 L 48 101 L 50 101 L 51 102 L 50 103 L 54 106 L 54 108 L 52 109 L 50 107 L 46 106 Z M 41 102 L 42 101 L 43 102 L 42 103 Z M 180 101 L 181 100 L 182 101 L 181 102 Z M 195 100 L 196 99 L 198 102 L 197 103 Z M 179 100 L 180 99 L 181 100 L 180 101 Z M 78 99 L 79 100 L 76 103 L 75 101 Z M 62 99 L 63 101 L 59 106 L 58 104 Z M 199 99 L 200 98 L 201 99 L 200 100 Z M 194 99 L 195 98 L 196 99 L 195 100 Z M 178 99 L 179 98 L 180 99 L 179 100 Z M 78 99 L 79 98 L 80 99 L 79 100 Z M 62 99 L 63 98 L 64 99 L 63 100 Z M 207 97 L 210 101 L 206 103 L 203 106 L 201 104 L 201 102 Z M 193 98 L 194 97 L 195 98 L 194 99 Z M 177 98 L 178 97 L 179 98 L 178 99 Z M 79 98 L 80 97 L 81 98 L 80 99 Z M 49 98 L 50 97 L 53 99 L 56 103 L 55 104 L 51 101 Z M 176 97 L 177 96 L 178 97 L 177 98 Z M 80 97 L 81 96 L 82 97 L 81 98 Z M 63 97 L 64 96 L 65 98 L 64 99 Z M 174 96 L 175 95 L 176 96 L 175 97 Z M 81 96 L 82 95 L 83 96 L 82 97 Z M 64 96 L 65 95 L 66 96 L 65 97 Z M 173 95 L 174 94 L 175 95 L 174 96 Z M 65 95 L 66 94 L 67 95 L 66 96 Z M 189 94 L 191 93 L 194 97 L 193 98 Z M 172 94 L 173 93 L 174 94 L 173 95 Z M 85 93 L 86 94 L 83 96 L 82 95 Z M 66 94 L 67 93 L 68 94 L 67 95 Z M 51 94 L 54 93 L 59 98 L 57 102 L 55 99 L 50 96 Z M 188 93 L 189 92 L 190 93 L 189 94 Z M 171 93 L 172 92 L 173 93 L 172 94 Z M 85 93 L 86 92 L 87 93 L 86 94 Z M 67 93 L 68 92 L 69 93 L 68 94 Z M 60 95 L 60 93 L 62 92 L 63 94 L 61 96 Z M 187 92 L 188 91 L 189 92 L 188 93 Z M 87 92 L 88 91 L 89 92 L 88 93 Z M 68 92 L 69 91 L 70 92 L 69 93 Z M 203 90 L 206 94 L 202 98 L 200 97 L 198 98 L 197 95 Z M 186 91 L 187 90 L 188 91 L 187 92 Z M 88 91 L 89 90 L 91 91 L 90 92 Z M 69 91 L 70 90 L 71 91 L 70 92 Z M 59 91 L 60 90 L 61 92 L 60 93 Z M 185 90 L 186 89 L 187 90 L 186 91 Z M 90 90 L 91 89 L 92 90 L 91 91 Z M 70 90 L 71 89 L 72 90 L 71 91 Z M 184 89 L 185 88 L 186 89 L 185 90 Z M 91 89 L 92 88 L 94 89 L 93 90 Z M 71 89 L 72 88 L 73 89 L 72 90 Z M 164 88 L 165 87 L 166 88 L 165 89 Z M 93 88 L 94 87 L 95 88 L 94 89 Z M 195 86 L 196 88 L 192 91 L 191 90 Z M 162 87 L 163 86 L 165 87 L 164 88 Z M 94 87 L 95 86 L 97 87 L 96 88 Z M 75 86 L 76 87 L 73 89 L 72 88 Z M 199 85 L 200 86 L 200 89 L 196 93 L 194 93 L 193 92 Z M 180 86 L 182 85 L 185 88 L 183 89 Z M 160 86 L 161 85 L 163 86 L 162 87 Z M 75 86 L 76 85 L 77 86 L 76 87 Z M 69 86 L 70 85 L 71 86 L 70 87 Z M 195 85 L 196 84 L 197 86 L 196 87 Z M 186 85 L 187 84 L 188 85 L 187 86 Z M 158 85 L 159 84 L 160 85 L 159 86 Z M 99 84 L 100 85 L 97 87 L 96 86 Z M 33 84 L 38 84 L 39 85 L 39 119 L 37 121 L 37 125 L 36 126 L 33 126 L 32 125 L 32 85 Z M 222 83 L 224 83 L 226 85 L 226 115 L 227 116 L 227 125 L 226 127 L 230 127 L 231 128 L 230 129 L 219 129 L 218 128 L 219 127 L 224 127 L 220 125 L 220 119 L 218 116 L 219 114 L 219 85 Z M 177 84 L 179 83 L 181 85 L 179 86 Z M 157 84 L 158 83 L 159 84 L 158 85 Z M 99 84 L 100 83 L 102 84 L 101 85 Z M 79 83 L 80 84 L 77 86 L 76 85 Z M 69 88 L 67 89 L 62 85 L 62 87 L 65 90 L 64 92 L 59 89 L 58 91 L 55 91 L 54 92 L 53 91 L 54 89 L 56 89 L 58 87 L 58 85 L 60 83 L 64 83 Z M 176 83 L 177 82 L 178 83 L 177 84 Z M 155 83 L 156 82 L 157 83 L 156 84 Z M 101 83 L 102 82 L 104 83 L 103 84 Z M 194 81 L 196 84 L 190 89 L 189 87 L 192 84 L 192 82 Z M 153 82 L 154 81 L 155 82 L 154 83 Z M 103 82 L 104 81 L 105 82 L 104 83 Z M 82 81 L 83 82 L 80 84 L 79 83 Z M 35 82 L 36 81 L 39 82 L 38 83 Z M 32 82 L 33 81 L 34 82 L 33 83 Z M 219 81 L 220 80 L 223 80 L 224 81 L 223 82 L 220 82 Z M 173 81 L 175 80 L 177 82 L 175 83 Z M 104 81 L 105 80 L 107 81 L 106 82 Z M 82 81 L 83 80 L 84 81 L 83 82 Z M 149 80 L 152 79 L 154 81 L 152 82 Z M 128 79 L 130 79 L 133 81 L 133 83 L 130 87 L 128 87 L 125 83 L 125 81 Z M 106 80 L 107 79 L 109 80 L 108 81 Z M 83 80 L 84 79 L 86 80 L 85 81 Z M 63 80 L 64 79 L 67 79 L 69 81 L 70 85 L 69 86 L 65 83 Z M 170 79 L 172 78 L 174 80 L 172 81 Z M 147 79 L 148 78 L 150 79 L 149 80 Z M 85 79 L 86 78 L 88 79 L 87 80 Z M 169 78 L 170 77 L 171 78 L 170 79 Z M 146 78 L 147 77 L 148 78 L 147 79 Z M 87 78 L 88 77 L 89 78 L 88 79 Z M 189 76 L 191 78 L 191 80 L 190 81 L 187 81 L 184 85 L 182 82 L 187 76 Z M 167 77 L 168 76 L 170 77 L 169 78 Z M 144 77 L 145 76 L 146 77 L 145 78 Z M 88 77 L 89 76 L 91 77 L 90 78 Z M 224 76 L 225 75 L 228 75 L 229 76 L 228 77 L 225 77 Z M 216 76 L 217 75 L 220 76 L 219 77 Z M 165 76 L 166 75 L 168 76 L 167 77 Z M 142 76 L 143 75 L 145 76 L 144 77 Z M 90 76 L 91 75 L 93 76 L 92 77 Z M 59 75 L 62 77 L 60 81 L 58 81 L 56 79 L 58 78 Z M 28 76 L 29 75 L 41 75 L 42 76 L 41 77 L 29 77 Z M 164 75 L 165 74 L 166 75 L 165 76 Z M 82 101 L 106 85 L 128 74 L 130 74 L 150 84 L 152 86 L 168 95 L 185 111 L 190 121 L 190 124 L 192 129 L 192 224 L 191 225 L 184 225 L 183 224 L 183 155 L 179 150 L 179 147 L 182 143 L 183 144 L 182 149 L 185 153 L 185 157 L 186 158 L 186 204 L 187 204 L 187 156 L 186 155 L 187 153 L 183 148 L 185 144 L 186 138 L 184 134 L 180 130 L 181 127 L 180 120 L 175 115 L 169 114 L 169 115 L 173 115 L 175 116 L 180 122 L 180 128 L 178 131 L 179 131 L 184 137 L 184 143 L 183 144 L 182 143 L 182 138 L 181 136 L 178 133 L 175 132 L 178 125 L 177 121 L 174 118 L 172 117 L 168 117 L 167 116 L 167 111 L 168 110 L 169 111 L 168 108 L 164 104 L 158 104 L 157 105 L 155 103 L 154 100 L 150 96 L 146 95 L 141 97 L 136 91 L 130 87 L 134 84 L 134 80 L 130 77 L 128 77 L 124 80 L 124 84 L 128 87 L 126 88 L 118 97 L 116 96 L 109 96 L 105 99 L 104 103 L 105 100 L 109 97 L 116 97 L 119 98 L 120 95 L 129 88 L 134 91 L 140 98 L 143 97 L 149 97 L 154 101 L 156 106 L 157 105 L 163 105 L 164 106 L 163 107 L 158 107 L 154 110 L 153 109 L 153 104 L 150 100 L 148 99 L 144 99 L 139 103 L 138 102 L 138 99 L 133 93 L 128 91 L 121 98 L 119 103 L 118 101 L 115 99 L 110 99 L 108 100 L 106 103 L 104 109 L 102 107 L 97 106 L 92 110 L 91 112 L 91 116 L 90 117 L 87 117 L 86 116 L 88 115 L 90 109 L 94 105 L 96 104 L 100 104 L 102 105 L 102 104 L 96 103 L 91 106 L 88 114 L 82 116 L 79 119 L 78 121 L 78 130 L 71 138 L 73 140 L 73 143 L 75 149 L 73 150 L 71 153 L 72 155 L 72 216 L 73 218 L 71 221 L 69 221 L 70 223 L 71 222 L 73 223 L 73 152 L 76 149 L 74 143 L 74 136 L 75 134 L 79 131 L 78 123 L 80 119 L 83 116 L 86 116 L 87 117 L 84 118 L 81 122 L 81 129 L 82 131 L 78 134 L 76 138 L 76 141 L 79 147 L 79 150 L 75 155 L 76 157 L 76 225 L 75 226 L 74 225 L 67 225 L 66 224 L 66 131 L 67 130 L 67 126 L 68 125 L 69 119 L 73 111 Z M 186 218 L 186 223 L 187 223 L 187 218 Z M 186 207 L 186 211 L 187 211 L 187 207 Z M 71 124 L 71 127 L 73 128 L 73 123 Z M 186 122 L 184 123 L 184 126 L 185 126 Z M 83 104 L 81 105 L 79 108 L 81 111 L 82 108 L 83 109 L 85 108 L 85 106 Z M 81 107 L 82 106 L 83 107 L 82 108 Z M 173 103 L 172 104 L 173 109 L 174 110 L 178 110 L 179 108 L 176 107 Z M 159 95 L 158 96 L 158 99 L 160 100 L 161 99 L 161 96 Z M 99 95 L 97 96 L 96 98 L 97 100 L 100 99 L 100 96 Z M 110 88 L 109 91 L 112 92 L 113 89 Z M 147 87 L 146 88 L 146 92 L 149 91 L 149 88 Z M 92 75 L 93 74 L 94 75 L 93 76 Z M 183 73 L 185 76 L 179 81 L 177 79 L 179 76 Z M 162 74 L 163 73 L 165 74 L 164 75 Z M 139 74 L 141 73 L 143 75 L 141 76 Z M 93 74 L 94 73 L 96 74 L 95 75 Z M 137 73 L 138 72 L 140 73 L 139 74 Z M 77 72 L 80 75 L 81 78 L 80 79 L 76 76 L 79 79 L 77 82 L 76 79 L 72 76 L 75 81 L 75 83 L 73 85 L 71 81 L 68 78 L 68 75 Z M 159 72 L 161 71 L 163 73 L 161 74 Z M 98 71 L 99 72 L 96 74 L 95 73 Z M 178 70 L 180 73 L 177 77 L 175 78 L 174 77 L 174 75 L 176 73 L 175 71 Z M 157 71 L 158 70 L 160 71 L 159 72 Z M 98 71 L 99 70 L 101 71 L 100 72 Z M 187 69 L 189 70 L 189 73 L 188 74 L 186 71 Z M 155 70 L 156 69 L 158 70 L 157 71 Z M 69 70 L 71 69 L 72 71 L 70 72 Z M 84 68 L 86 69 L 87 72 L 86 75 L 83 69 Z M 81 68 L 83 69 L 83 72 L 85 75 L 84 77 L 82 76 L 79 71 Z M 226 67 L 227 68 L 227 73 L 226 74 L 225 73 L 225 68 Z M 106 68 L 102 71 L 100 70 L 104 67 Z M 172 66 L 173 67 L 173 70 L 171 72 L 170 75 L 166 71 L 169 66 Z M 150 67 L 152 66 L 156 69 L 154 70 Z M 105 67 L 106 66 L 108 67 L 107 68 Z M 89 66 L 91 67 L 91 69 L 93 71 L 91 73 L 88 71 L 87 68 Z M 35 66 L 37 67 L 37 73 L 36 74 L 34 73 L 34 67 Z M 223 65 L 224 66 L 224 73 L 222 74 L 221 73 L 221 67 Z M 107 66 L 108 65 L 110 66 L 109 67 Z M 85 66 L 86 65 L 87 67 L 86 68 Z M 39 65 L 40 66 L 40 72 L 39 73 L 38 72 L 38 66 Z M 225 65 L 226 64 L 227 65 L 226 66 Z M 219 64 L 220 65 L 220 73 L 219 74 L 218 73 L 218 65 Z M 156 65 L 157 64 L 158 66 L 157 67 Z M 223 64 L 224 63 L 226 64 L 225 65 Z M 219 64 L 220 63 L 222 64 L 221 65 Z M 187 64 L 188 63 L 189 64 L 188 65 Z M 166 63 L 168 65 L 166 66 L 164 71 L 162 69 Z M 37 64 L 38 63 L 39 64 L 38 65 Z M 33 63 L 34 64 L 33 65 L 33 73 L 32 74 L 31 73 L 31 64 Z M 91 62 L 94 64 L 94 67 L 95 68 L 94 71 L 90 66 L 90 63 Z M 69 63 L 70 62 L 71 63 L 70 64 Z M 162 61 L 164 63 L 162 66 L 162 68 L 160 69 L 159 66 Z M 140 62 L 143 61 L 151 66 L 149 67 Z M 118 62 L 111 66 L 109 65 L 115 61 Z M 100 61 L 102 64 L 101 66 L 99 64 Z M 138 61 L 139 60 L 141 61 L 140 62 Z M 66 99 L 80 86 L 86 83 L 94 77 L 99 75 L 108 69 L 112 68 L 118 64 L 121 65 L 120 66 L 121 67 L 121 70 L 118 73 L 120 72 L 123 69 L 122 66 L 120 64 L 122 62 L 128 60 L 131 60 L 137 64 L 139 64 L 153 71 L 155 73 L 168 80 L 175 86 L 182 90 L 186 94 L 184 95 L 184 97 L 186 97 L 185 96 L 186 94 L 196 105 L 200 113 L 201 119 L 202 120 L 202 124 L 203 125 L 203 132 L 204 133 L 204 224 L 203 225 L 197 225 L 196 224 L 196 133 L 195 132 L 195 124 L 191 112 L 186 104 L 173 92 L 175 91 L 175 88 L 173 92 L 169 91 L 165 86 L 167 84 L 164 86 L 156 82 L 154 80 L 155 79 L 148 78 L 142 73 L 144 71 L 144 69 L 143 71 L 140 73 L 136 70 L 136 66 L 135 68 L 138 72 L 137 73 L 131 71 L 129 69 L 127 71 L 115 77 L 114 76 L 115 77 L 114 78 L 112 77 L 113 78 L 112 79 L 110 78 L 111 79 L 110 80 L 107 79 L 104 81 L 102 81 L 96 86 L 83 93 L 76 100 L 75 100 L 70 106 L 68 103 L 66 103 L 66 105 L 68 106 L 69 108 L 68 111 L 64 116 L 64 119 L 62 122 L 62 124 L 64 125 L 64 131 L 63 132 L 63 224 L 62 225 L 61 224 L 61 202 L 60 202 L 60 207 L 61 208 L 60 219 L 59 220 L 60 221 L 60 224 L 59 225 L 55 225 L 54 224 L 54 130 L 55 129 L 55 123 L 56 122 L 58 112 Z M 199 218 L 199 222 L 200 222 L 200 219 Z M 199 201 L 198 202 L 199 204 Z M 198 186 L 199 188 L 198 189 L 199 190 L 199 186 Z M 61 171 L 60 172 L 60 178 L 61 179 L 60 181 L 60 198 L 61 197 Z M 198 168 L 199 170 L 200 169 Z M 61 159 L 60 159 L 60 166 L 61 165 Z M 198 151 L 198 152 L 200 153 L 200 151 Z M 198 141 L 198 142 L 200 143 L 200 141 Z M 60 136 L 60 153 L 61 152 L 61 139 Z M 198 132 L 201 132 L 201 131 Z M 62 126 L 60 129 L 61 130 L 61 134 L 61 128 Z M 199 121 L 197 122 L 197 124 L 199 123 Z M 198 115 L 196 116 L 197 117 Z M 61 113 L 62 115 L 63 114 Z M 192 104 L 191 107 L 194 109 L 194 107 Z M 79 90 L 79 92 L 81 92 L 81 91 Z M 128 63 L 127 66 L 130 67 L 131 64 Z M 128 65 L 129 64 L 130 65 L 129 66 Z M 117 61 L 118 60 L 120 61 L 119 62 Z M 160 59 L 161 60 L 159 62 L 158 65 L 157 64 L 157 60 Z M 136 60 L 137 59 L 139 60 L 138 61 Z M 97 59 L 99 65 L 98 68 L 96 67 L 95 62 Z M 30 60 L 31 59 L 33 60 L 32 61 Z M 217 59 L 218 58 L 226 58 L 227 59 L 226 60 L 218 60 Z M 119 60 L 121 58 L 124 59 L 121 61 Z M 32 59 L 33 58 L 38 58 L 39 59 L 38 60 L 33 60 Z M 154 57 L 156 59 L 155 64 L 153 65 L 151 63 L 151 61 Z M 131 58 L 134 57 L 137 59 L 134 60 Z M 107 57 L 109 59 L 108 62 L 106 59 Z M 102 57 L 104 58 L 106 63 L 104 65 L 102 61 L 99 59 Z M 146 56 L 147 57 L 147 60 L 146 61 L 144 59 Z M 123 58 L 126 56 L 128 57 L 126 59 Z M 127 56 L 130 55 L 132 57 L 130 58 Z M 104 56 L 105 55 L 106 56 L 105 57 Z M 218 55 L 219 54 L 220 55 L 219 56 Z M 152 54 L 154 57 L 152 58 L 149 62 L 148 59 L 150 55 Z M 37 55 L 38 54 L 39 55 L 38 56 Z M 133 54 L 134 53 L 135 54 L 134 55 Z M 219 54 L 221 52 L 224 52 L 226 55 L 225 56 Z M 109 52 L 112 53 L 112 56 L 114 59 L 112 61 L 111 61 L 107 56 L 107 54 Z M 32 54 L 35 52 L 38 54 L 37 55 L 33 55 Z M 132 52 L 133 51 L 134 53 L 133 54 Z M 113 51 L 115 52 L 117 56 L 116 59 L 112 53 Z M 145 50 L 147 52 L 148 56 L 147 57 L 145 55 L 142 59 L 141 56 L 142 53 Z M 116 48 L 118 46 L 125 45 L 126 44 L 135 45 L 141 48 L 140 56 L 139 57 L 137 56 L 137 53 L 138 52 L 137 49 L 134 50 L 132 49 L 132 53 L 131 54 L 130 53 L 130 46 L 127 46 L 127 53 L 126 54 L 124 49 L 123 51 L 122 48 L 120 49 L 121 56 L 119 58 L 117 55 Z M 121 38 L 122 39 L 122 42 L 121 43 L 120 42 L 120 39 Z M 137 36 L 138 37 L 138 43 L 137 44 L 136 43 L 136 37 Z M 128 36 L 130 37 L 130 40 L 131 41 L 130 42 L 127 41 L 127 37 Z M 118 35 L 119 36 L 119 43 L 118 44 L 117 43 L 117 36 Z M 133 30 L 134 31 L 134 41 L 133 42 L 132 41 L 132 31 Z M 124 30 L 125 31 L 125 41 L 124 42 L 123 41 L 123 31 Z M 138 28 L 139 27 L 141 28 L 140 29 Z M 116 28 L 117 27 L 118 28 L 117 29 Z M 136 27 L 137 26 L 139 27 L 138 28 Z M 117 27 L 118 26 L 121 27 L 120 28 Z M 132 26 L 133 25 L 136 25 L 137 26 L 136 27 L 133 27 Z M 120 26 L 124 24 L 132 24 L 133 25 L 132 26 L 126 26 L 125 27 L 121 27 Z M 134 23 L 135 22 L 137 23 L 136 24 Z M 119 24 L 120 22 L 123 23 L 120 25 Z M 122 22 L 123 21 L 133 21 L 134 22 L 133 23 L 123 23 Z M 119 19 L 120 18 L 121 19 L 120 20 Z M 123 18 L 124 17 L 126 18 L 125 19 Z M 133 16 L 134 15 L 135 16 L 134 17 Z M 121 16 L 122 15 L 123 16 L 122 17 Z M 122 15 L 124 13 L 131 13 L 134 15 L 133 16 L 123 16 Z M 127 9 L 128 8 L 129 9 L 128 10 Z" fill="#000" fill-rule="evenodd" clip-rule="evenodd"/>
  </g>
</svg>
